<svg xmlns="http://www.w3.org/2000/svg" style="display:none;">
    <defs>
        <g>
            <path d="M0.015625 0L7.68491 90L42.1215 100L76.546 90.0062L84.2273 0H0.015625Z" fill="#FF5722"/>
            <path d="M67.5955 29.4316H42.1215H27.2341L28.1965 40.7379H42.1215H66.6331L63.7399 74.6379L42.1215 80.9066L42.1035 80.9129L20.4972 74.6379L18.9874 56.9066H29.574L30.362 66.1066L42.1095 69.4254L42.1215 69.4191L53.8811 66.1004L55.1082 51.7816H42.1215H18.5543L15.7031 18.4004H42.1215H68.5339L67.5955 29.4316Z" fill="#FAFAFA"/>
        </g>
        <g>
            <path d="M0.00976562 0L7.67267 90L42.0806 100L76.4765 90.0062L84.1514 0H0.00976562Z" fill="#2196F3"/>
            <path d="M67.7674 29.4311L66.7998 40.7374L63.8789 74.6311L42.0802 80.8999L42.0622 80.9061L20.2755 74.6311L18.7549 56.9061H29.4289L30.2222 66.0999L42.0682 69.4249L42.0742 69.4186L53.9382 66.0936L55.5549 50.7749L18.2441 50.8811L17.1863 40.4061L56.4504 39.9249L57.2437 28.7124L16.1345 28.8311L15.4434 18.3999H42.0802H68.717L67.7674 29.4311Z" fill="#FAFAFA"/>
        </g>
        <g>
            <path d="M109.974 57.4487C105.547 57.475 101.713 58.5946 98.4977 60.2615C97.3105 57.7875 96.1233 55.6258 95.9257 54.0115C95.7031 52.1365 95.431 50.9904 95.7031 48.7511C95.9749 46.5112 97.2116 43.3341 97.2116 43.0737C97.1866 42.8393 96.9393 41.6935 94.392 41.6675C91.8447 41.6414 89.6432 42.1883 89.3959 42.8914C89.1485 43.5946 88.6539 45.2091 88.3323 46.8758C87.8871 49.3237 83.2373 57.9956 80.5908 62.5529C79.7252 60.782 78.9832 59.2196 78.8345 57.9693C78.6122 56.0946 78.3399 54.9485 78.6122 52.7091C78.8842 50.4693 80.1209 47.2925 80.1209 47.0321C80.0962 46.7977 79.8488 45.6518 77.3016 45.6258C74.7538 45.5998 72.5528 46.1466 72.3055 46.8498C72.0581 47.5529 71.7861 49.2196 71.2419 50.8341C70.7223 52.4487 64.539 66.9279 62.9313 70.7039C62.1151 72.631 61.3981 74.1675 60.8785 75.2091C60.3591 76.2508 60.8537 75.2873 60.8043 75.3914C60.3591 76.2768 60.1117 76.7716 60.1117 76.7716V76.7979C59.7655 77.449 59.3945 78.0737 59.2211 78.0737C59.0974 78.0737 58.8501 76.3289 59.2705 73.9333C60.1857 68.9071 62.4117 61.0688 62.3872 60.7823C62.3872 60.6521 62.8074 59.2716 60.9524 58.5688C59.1469 57.8656 58.5041 59.0375 58.3554 59.0375C58.207 59.0375 58.0834 59.4542 58.0834 59.4542C58.0834 59.4542 60.0867 50.6263 54.2497 50.6263C50.5892 50.6263 45.5436 54.819 43.0456 58.6472C41.4626 59.5586 38.0989 61.4854 34.5373 63.543C33.177 64.3242 31.7672 65.1576 30.4316 65.9128L30.1598 65.5998C23.0861 57.6571 10.0022 52.0321 10.5463 41.355C10.7442 37.4748 12.0303 27.2404 35.6755 14.8446C55.0417 4.68832 70.5494 7.47477 73.2451 13.6727C77.0787 22.5269 64.9594 38.9852 44.8268 41.355C37.1595 42.2664 33.1278 39.1414 32.114 37.9696C31.0504 36.7456 30.902 36.6935 30.5063 36.9279C29.8632 37.2925 30.259 38.3862 30.5063 39.0373C31.0999 40.6779 33.5732 43.5946 37.7779 45.0529C41.4629 46.3289 50.466 47.0321 61.3486 42.605C73.5421 37.631 83.0644 23.8289 80.2696 12.2925C77.4252 0.547694 58.9248 -3.30647 41.4384 3.22998C31.0255 7.13623 19.7471 13.23 11.6346 21.2248C1.98864 30.7039 0.45518 38.9852 1.09824 42.4227C3.34921 54.6883 19.4008 62.6831 25.8315 68.5946C25.5099 68.7766 25.2131 68.9589 24.9411 69.1154C21.7258 70.7818 9.48281 77.5268 6.41589 84.662C2.95324 92.7349 6.96002 98.5425 9.63121 99.3237C17.8921 101.746 26.3509 97.3966 30.9265 90.2352C35.4772 83.0737 34.9333 73.7768 32.831 69.5321L32.7565 69.3758L35.2793 67.8133C36.912 66.7977 38.5196 65.8602 39.9292 65.0526C39.138 67.3182 38.5688 70.0005 38.2723 73.9068C37.926 78.4904 39.7068 84.4276 42.0565 86.7714C43.0953 87.7867 44.3319 87.813 45.0987 87.813C47.8193 87.813 49.056 85.443 50.4163 82.6047C52.0982 79.1412 53.5822 75.1307 53.5822 75.1307C53.5822 75.1307 51.7272 85.9901 56.7975 85.9901C58.6525 85.9901 60.5075 83.4641 61.3484 82.162V82.188C61.3484 82.188 61.3979 82.1099 61.4968 81.9276C61.6006 81.7661 61.6995 81.6011 61.7936 81.4331V81.381C62.5356 80.0268 64.1927 76.9279 66.666 71.7977C69.8564 65.1831 72.9235 56.9018 72.9235 56.9018C72.9235 56.9018 73.2203 58.9331 74.1355 62.2664C74.6794 64.2458 75.8665 66.4071 76.7817 68.5164C76.0397 69.6102 75.5945 70.2354 75.5945 70.2354L75.6192 70.2615C75.0259 71.0948 74.3578 71.9805 73.6655 72.8656C71.1427 76.0427 68.1253 79.6628 67.7296 80.7044C67.2596 81.9281 67.3586 82.8396 68.2737 83.569C68.9415 84.0899 70.1287 84.1938 71.3901 84.0899C73.6655 83.9333 75.2485 83.3347 76.0399 82.9698C77.2766 82.5011 78.6864 81.7979 80.0467 80.7563C82.52 78.8294 84.0288 76.0951 83.8804 72.4492C83.8062 70.444 83.1878 68.4649 82.4211 66.5899C82.6437 66.2513 82.8665 65.9125 83.0889 65.5482C86.9967 59.5323 90.0142 52.918 90.0142 52.918C90.0142 52.918 90.311 54.9492 91.2261 58.2826C91.6958 59.9753 92.6359 61.8245 93.4769 63.6474C89.8163 66.7985 87.5161 70.4443 86.7247 72.8401C85.2654 77.2672 86.4032 79.2724 88.5549 79.7412C89.5193 79.9495 90.9046 79.4808 91.9431 79.012C93.2293 78.5693 94.7875 77.8138 96.2222 76.6943C98.6956 74.7672 101.07 72.0849 100.946 68.4651C100.872 66.7985 100.452 65.1578 99.8828 63.5953C102.999 62.2412 107.03 61.4599 112.15 62.111C123.157 63.4651 125.333 70.7047 124.913 73.7255C124.493 76.7466 122.192 78.413 121.425 78.9339C120.659 79.4287 120.411 79.6112 120.486 79.9755C120.584 80.5227 120.931 80.4964 121.599 80.3925C122.514 80.236 127.386 77.9185 127.584 72.3458C127.881 65.1833 121.425 57.3709 109.974 57.4487ZM25.0895 87.5789C21.4537 91.7716 16.3339 93.3602 14.1574 92.006C11.8077 90.5737 12.7226 84.4018 17.1996 79.9487C19.9202 77.2404 23.4571 74.7404 25.782 73.2039C26.3014 72.8654 27.0929 72.3709 28.0327 71.7716C28.1811 71.6677 28.2801 71.6154 28.2801 71.6154C28.4532 71.5112 28.6511 71.381 28.8489 71.2508C30.5061 77.605 28.9231 83.1779 25.0895 87.5789ZM51.6777 68.5425C50.4163 71.7977 47.7451 80.1571 46.1375 79.6883C44.7521 79.2977 43.9115 72.9696 45.8651 66.7196C46.8545 63.5682 48.9568 59.8185 50.1935 58.3599C52.1971 56.0162 54.3734 55.2349 54.9177 56.1985C55.5608 57.4487 52.4692 66.5112 51.6777 68.5425ZM73.6161 79.5841C73.0719 79.8708 72.5773 80.0789 72.3547 79.9229C72.1815 79.8188 72.577 79.4281 72.577 79.4281C72.577 79.4281 75.3224 76.3292 76.4107 74.8969C77.029 74.0638 77.771 73.1003 78.5625 72.0063V72.3188C78.5627 76.0685 75.1495 78.5685 73.6161 79.5841ZM90.5333 75.5216C90.1376 75.2091 90.1873 74.2456 91.5227 71.2248C92.0423 70.0268 93.2293 68.0216 95.2821 66.1206C95.5295 66.9018 95.6781 67.6568 95.6531 68.3602C95.6286 73.0477 92.4628 74.7925 90.5333 75.5216Z" fill="#CF649A"/>
        </g>
        <g>
            <path d="M96.242 83.3333C96.242 92.5 89.0238 100 80.2016 100H16.0403C7.21815 100 0 92.5 0 83.3333V16.6667C0 7.5 7.21815 0 16.0403 0H80.2016C89.0238 0 96.242 7.5 96.242 16.6667V83.3333Z" fill="#563D7C"/>
            <path d="M26.1517 21.7323H53.436C58.4683 21.7323 62.5098 22.9251 65.5449 25.327C68.58 27.729 70.1054 31.3401 70.1054 36.1931C70.1054 39.1342 69.4134 41.6506 68.0296 43.7421C66.6457 45.8336 64.6642 47.4676 62.0852 48.6114V48.7748C65.5449 49.5427 68.1711 51.2421 69.9481 53.8728C71.7251 56.5199 72.6215 59.8205 72.6215 63.8074C72.6215 66.095 72.2284 68.2355 71.4421 70.2127C70.6558 72.2061 69.4292 73.9218 67.7465 75.3597C66.0639 76.7976 63.9251 77.9414 61.2989 78.7911C58.6727 79.6408 55.559 80.0656 51.9421 80.0656H26.1517V21.7323ZM35.9804 46.1604H52.0207C54.3796 46.1604 56.3453 45.4741 57.9179 44.0689C59.4905 42.6636 60.2767 40.6702 60.2767 38.0558C60.2767 35.1146 59.5691 33.0395 58.1538 31.8467C56.7384 30.6538 54.6941 30.0493 52.0207 30.0493H35.9804V46.1604ZM35.9804 71.7323H53.3574C56.3453 71.7323 58.6727 70.9316 60.3082 69.314C61.9594 67.7127 62.7929 65.4251 62.7929 62.4839C62.7929 59.5917 61.9751 57.3859 60.3082 55.8172C58.6413 54.2486 56.3453 53.497 53.3574 53.497H35.9804V71.7323Z" fill="white"/>  
        </g>
        <g>
            <path d="M17.3754 100C26.9633 100 34.7448 92.5335 34.7448 83.3335V66.6668H17.3754C7.78748 66.6668 0.00598145 74.1335 0.00598145 83.3335C0.00598145 92.5335 7.78748 100 17.3754 100Z" fill="#0ACF83"/>
            <path d="M0.00598145 49.9999C0.00598145 40.7999 7.78748 33.3332 17.3754 33.3332H34.7448V66.6665H17.3754C7.78748 66.6665 0.00598145 59.1999 0.00598145 49.9999Z" fill="#A259FF"/>
            <path d="M0.00390625 16.6667C0.00390625 7.46667 7.7854 5.72205e-06 17.3733 5.72205e-06H34.7427V33.3333H17.3733C7.7854 33.3333 0.00390625 25.8667 0.00390625 16.6667Z" fill="#F24E1E"/>
            <path d="M34.7457 5.72205e-06H52.1151C61.7031 5.72205e-06 69.4846 7.46667 69.4846 16.6667C69.4846 25.8667 61.7031 33.3333 52.1151 33.3333H34.7457V5.72205e-06Z" fill="#FF7262"/>
            <path d="M69.4845 49.9999C69.4845 59.1999 61.7031 66.6665 52.1151 66.6665C42.5272 66.6665 34.7457 59.1999 34.7457 49.9999C34.7457 40.7999 42.5272 33.3332 52.1151 33.3332C61.7031 33.3332 69.4845 40.7999 69.4845 49.9999Z" fill="#1ABCFE"/>
        </g>
        <g>
            <path d="M94.8556 77.343C89.2524 77.2048 84.9099 77.7594 81.2677 79.2833C80.2171 79.6989 78.536 79.6993 78.3958 81.0155C78.9565 81.5701 79.0264 82.4707 79.5167 83.2327C80.3577 84.618 81.828 86.4892 83.1589 87.4594C84.6296 88.5678 86.1006 89.6762 87.6412 90.6464C90.3729 92.3094 93.4548 93.2792 96.1162 94.9422C97.6576 95.9115 99.1977 97.1595 100.739 98.1987C101.509 98.7525 101.999 99.6536 102.98 100V99.7922C102.49 99.1685 102.35 98.2679 101.86 97.575C101.16 96.8821 100.459 96.2584 99.7584 95.5655C97.7271 92.8636 95.2058 90.5078 92.4741 88.5678C90.2332 87.0434 85.33 84.9649 84.4195 82.4012C84.4195 82.4012 84.3492 82.3321 84.2794 82.263C85.8203 82.1243 87.6412 81.5701 89.1123 81.1541C91.4938 80.5304 93.6649 80.669 96.1162 80.0457C97.2367 79.7684 98.3576 79.422 99.4781 79.0756V78.4522C98.2179 77.2047 97.307 75.5421 95.9761 74.3642C92.4042 71.315 88.4817 68.3362 84.4195 65.8421C82.248 64.4564 79.4464 63.5553 77.1353 62.3778C76.2951 61.9614 74.8939 61.754 74.404 61.0612C73.1429 59.5368 72.4425 57.5278 71.5321 55.726C69.5016 51.9149 67.5397 47.689 65.7887 43.6705C64.5286 40.9682 63.7579 38.2659 62.2169 35.7718C55.0029 23.9932 47.1584 16.8568 35.1115 9.85863C32.5199 8.4038 29.4385 7.78005 26.1465 7.01808C24.396 6.94853 22.6445 6.81031 20.8935 6.74076C19.7731 6.25567 18.6522 4.9395 17.6714 4.31575C13.68 1.82119 3.3836 -3.5826 0.441855 3.55378C-1.44931 8.05738 3.24344 12.4914 4.85425 14.7782C6.04545 16.3717 7.58597 18.1729 8.42653 19.9747C8.9169 21.1517 9.05662 22.3997 9.54699 23.6467C10.6679 26.6946 11.718 30.0902 13.1891 32.9312C13.9598 34.3861 14.8 35.9105 15.7807 37.2266C16.3409 37.9886 17.3212 38.3354 17.5317 39.5825C16.5514 40.9682 16.4811 43.0468 15.9204 44.779C13.3992 52.6082 14.3799 62.3083 17.9517 68.0589C19.0722 69.7906 21.734 73.6022 25.3059 72.1469C28.4577 70.8999 27.7573 66.9505 28.6677 63.4862C28.8782 62.6542 28.738 62.1005 29.1581 61.5463C29.1585 61.6154 29.1581 61.6849 29.1581 61.6849C30.1388 63.6248 31.1191 65.4957 32.0295 67.4355C34.201 70.8303 37.9829 74.3641 41.1347 76.7201C42.8163 77.9667 44.1468 80.1148 46.2479 80.8772V80.669H46.1078C45.6873 80.0453 45.0572 79.7684 44.4969 79.2833C43.2363 78.0362 41.8351 76.5119 40.8548 75.1261C37.9135 71.2458 35.3215 66.9505 33.0103 62.516C31.8898 60.3683 30.9091 58.0124 29.9987 55.8647C29.5782 55.0328 29.5782 53.7861 28.8778 53.3706C27.8272 54.8945 26.2867 56.2112 25.5159 58.082C24.1859 61.0612 24.0453 64.7333 23.5549 68.544C23.275 68.6135 23.4148 68.544 23.2746 68.6826C21.0337 68.128 20.263 65.8421 19.4224 63.9017C17.3212 58.9826 16.971 51.0838 18.7923 45.4027C19.2827 43.9474 21.3839 39.3747 20.5433 37.989C20.1232 36.6724 18.722 35.9104 17.9517 34.8711C17.0413 33.5545 16.0606 31.8919 15.4305 30.4367C13.7494 26.5568 12.9088 22.261 11.088 18.3807C10.2474 16.579 8.77673 14.7087 7.58597 13.046C6.25549 11.1752 4.78438 9.85863 3.73378 7.64138C3.38402 6.87941 2.89321 5.63235 3.45344 4.80083C3.59361 4.24663 3.8735 4.03886 4.43417 3.9002C5.3446 3.13779 7.93615 4.10797 8.84656 4.52351C11.4381 5.56236 13.6092 6.53298 15.7807 7.98781C16.761 8.68067 17.8115 9.99728 19.0722 10.3437H20.5433C22.7846 10.8284 25.3059 10.4824 27.4071 11.1057C31.1195 12.2832 34.4809 14.0158 37.493 15.8866C46.6684 21.6372 54.2322 29.8133 59.3454 39.5825C60.186 41.1756 60.5358 42.6313 61.3065 44.2939C62.7776 47.6891 64.5984 51.1534 66.0691 54.479C67.5397 57.7351 68.9405 61.0612 71.0417 63.7635C72.0927 65.2179 76.2947 65.9803 78.1858 66.7427C79.5866 67.3661 81.7581 67.9207 83.0187 68.6827C85.3998 70.137 87.7813 71.8005 90.0227 73.394C91.1436 74.2251 94.6451 75.9577 94.8556 77.343L94.8556 77.343Z" fill="#00546B"/>
        </g>
        <g>
            <path d="M0 0H96.242V100H0V0Z" fill="#F7DF1E"/>
            <path d="M25.3057 83.5671L32.6708 78.9358C34.0917 81.5534 35.3842 83.7682 38.4846 83.7682C41.4565 83.7682 43.3301 82.5602 43.3301 77.8618V45.9095H52.3744V77.9947C52.3744 87.728 46.8834 92.1583 38.8723 92.1583C31.6372 92.1583 27.4374 88.2649 25.3055 83.5663" fill="black"/>
            <path d="M57.2867 82.5603L64.6509 78.13C66.5895 81.4195 69.1091 83.8359 73.5665 83.8359C77.3139 83.8359 79.7036 81.889 79.7036 79.2039C79.7036 75.9819 77.2489 74.8406 73.1141 72.9617L70.8537 71.9541C64.3283 69.0682 59.9997 65.4435 59.9997 57.7909C59.9997 50.7427 65.1679 45.3724 73.2437 45.3724C78.9934 45.3724 83.128 47.4535 86.0995 52.8908L79.0576 57.5894C77.507 54.7032 75.8278 53.5622 73.2438 53.5622C70.595 53.5622 68.9152 55.3074 68.9152 57.5894C68.9152 60.4087 70.595 61.5501 74.4708 63.2955L76.7318 64.3024C84.4197 67.726 88.7483 71.2162 88.7483 79.0697C88.7483 87.5281 82.3526 92.1593 73.7605 92.1593C65.3621 92.1593 59.9352 87.9978 57.2869 82.5603" fill="black"/>
        </g>
        <g>
            <path d="M19 0H2C0.89543 0 0 0.89543 0 2V13C0 14.1046 0.89543 15 2 15H19C20.1046 15 21 14.1046 21 13V2C21 0.89543 20.1046 0 19 0Z" fill="white"/>
            </mask>
            <g mask="url(#mask0_3:104)">
            <path d="M19 0H2C0.89543 0 0 0.89543 0 2V13C0 14.1046 0.89543 15 2 15H19C20.1046 15 21 14.1046 21 13V2C21 0.89543 20.1046 0 19 0Z" fill="white"/>
            <path fill-rule="evenodd" clip-rule="evenodd" d="M0 9H21V15H0V9ZM0 0H21V6H0V0Z" fill="#A02F37"/>
            <path d="M19 0.5H2C1.17157 0.5 0.5 1.17157 0.5 2V13C0.5 13.8284 1.17157 14.5 2 14.5H19C19.8284 14.5 20.5 13.8284 20.5 13V2C20.5 1.17157 19.8284 0.5 19 0.5Z" stroke="black" stroke-opacity="0.1"/>
            </g>
        </g>
        <g>
            <path d="M19 0H2C0.89543 0 0 0.89543 0 2V13C0 14.1046 0.89543 15 2 15H19C20.1046 15 21 14.1046 21 13V2C21 0.89543 20.1046 0 19 0Z" fill="white"/>
            </mask>
            <g mask="url(#mask0_3:104)">
            <path d="M19 0H2C0.89543 0 0 0.89543 0 2V13C0 14.1046 0.89543 15 2 15H19C20.1046 15 21 14.1046 21 13V2C21 0.89543 20.1046 0 19 0Z" fill="white"/>
            <path fill-rule="evenodd" clip-rule="evenodd" d="M0 9H21V15H0V9ZM0 0H21V6H0V0Z" fill="#A02F37"/>
            <path d="M19 0.5H2C1.17157 0.5 0.5 1.17157 0.5 2V13C0.5 13.8284 1.17157 14.5 2 14.5H19C19.8284 14.5 20.5 13.8284 20.5 13V2C20.5 1.17157 19.8284 0.5 19 0.5Z" stroke="black" stroke-opacity="0.1"/>
            </g>
        </g>
        <g>
            <path d="M19 0H2C0.89543 0 0 0.89543 0 2V13C0 14.1046 0.89543 15 2 15H19C20.1046 15 21 14.1046 21 13V2C21 0.89543 20.1046 0 19 0Z" fill="white"/>
            </mask>
            <g mask="url(#mask0_3:53)">
            <path d="M19 0H2C0.89543 0 0 0.89543 0 2V13C0 14.1046 0.89543 15 2 15H19C20.1046 15 21 14.1046 21 13V2C21 0.89543 20.1046 0 19 0Z" fill="#0034A9"/>
            <path fill-rule="evenodd" clip-rule="evenodd" d="M0 10H21V15H0V10Z" fill="#D7280F"/>
            <path fill-rule="evenodd" clip-rule="evenodd" d="M0 0H21V5H0V0Z" fill="white"/>
            <path d="M19 0.5H2C1.17157 0.5 0.5 1.17157 0.5 2V13C0.5 13.8284 1.17157 14.5 2 14.5H19C19.8284 14.5 20.5 13.8284 20.5 13V2C20.5 1.17157 19.8284 0.5 19 0.5Z" stroke="black" stroke-opacity="0.1"/>
            </g>
        </g>
        <g>
            <path d="M19 0H2C0.89543 0 0 0.89543 0 2V13C0 14.1046 0.89543 15 2 15H19C20.1046 15 21 14.1046 21 13V2C21 0.89543 20.1046 0 19 0Z" fill="white"/>
            </mask>
            <g mask="url(#mask0_3:150)">
            <path d="M19 0H2C0.89543 0 0 0.89543 0 2V13C0 14.1046 0.89543 15 2 15H19C20.1046 15 21 14.1046 21 13V2C21 0.89543 20.1046 0 19 0Z" fill="#22438B"/>
            <path fill-rule="evenodd" clip-rule="evenodd" d="M3 1L0.973999 1.026L0.999999 3L17.982 14.028L20.019 13.991L19.981 12.029L3 1Z" fill="white"/>
            <path fill-rule="evenodd" clip-rule="evenodd" d="M2 1L1 2L19 14L20 13L2 1Z" fill="#C7152A"/>
            <path fill-rule="evenodd" clip-rule="evenodd" d="M18 1H20V3C20 3 8.24999 10.396 3.01799 14.028C2.95499 14.072 1.01999 14.031 1.01999 14.031L0.86499 12.13L18 1Z" fill="white"/>
            <path fill-rule="evenodd" clip-rule="evenodd" d="M19.043 0.972L20 2L2 14L1 13L19.043 0.972Z" fill="#C7152A"/>
            <path fill-rule="evenodd" clip-rule="evenodd" d="M8 1H13V5H20V10H13V14H8V10H1V5H8V1Z" fill="white"/>
            <path fill-rule="evenodd" clip-rule="evenodd" d="M9 1H12V6H20V9H12V14H9V9H1V6H9V1Z" fill="#C7152A"/>
            <path d="M19 0.5H2C1.17157 0.5 0.5 1.17157 0.5 2V13C0.5 13.8284 1.17157 14.5 2 14.5H19C19.8284 14.5 20.5 13.8284 20.5 13V2C20.5 1.17157 19.8284 0.5 19 0.5Z" stroke="black" stroke-opacity="0.1"/>
            </g>
        </g>

    </defs>
</svg>