<svg width="77" height="80" viewBox="0 0 97 100" fill="none" xmlns="http://www.w3.org/2000/svg">
    <g clip-path="url(#clip0_1:759)">
    <path d="M96.242 83.3333C96.242 92.5 89.0238 100 80.2016 100H16.0403C7.21815 100 0 92.5 0 83.3333V16.6667C0 7.5 7.21815 0 16.0403 0H80.2016C89.0238 0 96.242 7.5 96.242 16.6667V83.3333Z" fill="#563D7C"/>
    <path d="M26.1517 21.7323H53.436C58.4683 21.7323 62.5098 22.9251 65.5449 25.327C68.58 27.729 70.1054 31.3401 70.1054 36.1931C70.1054 39.1342 69.4134 41.6506 68.0296 43.7421C66.6457 45.8336 64.6642 47.4676 62.0852 48.6114V48.7748C65.5449 49.5427 68.1711 51.2421 69.9481 53.8728C71.7251 56.5199 72.6215 59.8205 72.6215 63.8074C72.6215 66.095 72.2284 68.2355 71.4421 70.2127C70.6558 72.2061 69.4292 73.9218 67.7465 75.3597C66.0639 76.7976 63.9251 77.9414 61.2989 78.7911C58.6727 79.6408 55.559 80.0656 51.9421 80.0656H26.1517V21.7323ZM35.9804 46.1604H52.0207C54.3796 46.1604 56.3453 45.4741 57.9179 44.0689C59.4905 42.6636 60.2767 40.6702 60.2767 38.0558C60.2767 35.1146 59.5691 33.0395 58.1538 31.8467C56.7384 30.6538 54.6941 30.0493 52.0207 30.0493H35.9804V46.1604ZM35.9804 71.7323H53.3574C56.3453 71.7323 58.6727 70.9316 60.3082 69.314C61.9594 67.7127 62.7929 65.4251 62.7929 62.4839C62.7929 59.5917 61.9751 57.3859 60.3082 55.8172C58.6413 54.2486 56.3453 53.497 53.3574 53.497H35.9804V71.7323Z" fill="white"/>
    </g>
    <defs>
    </defs>
</svg>    